<?xml version="1.0" encoding="UTF-8"?>
<svg xmlns="http://www.w3.org/2000/svg" xmlns:xlink="http://www.w3.org/1999/xlink" width="375pt" height="374.999991pt" viewBox="0 0 375 374.999991" version="1.2">
<defs>
<filter id="alpha" filterUnits="objectBoundingBox" x="0%" y="0%" width="100%" height="100%">
  <feColorMatrix type="matrix" in="SourceGraphic" values="0 0 0 0 1 0 0 0 0 1 0 0 0 0 1 0 0 0 1 0"/>
</filter>
<mask id="mask0">
  <g filter="url(#alpha)">
<rect x="0" y="0" width="375" height="374.999991" style="fill:rgb(0%,0%,0%);fill-opacity:0.6;stroke:none;"/>
  </g>
</mask>
<clipPath id="clip2">
  <path d="M 6.613281 0.644531 L 358.191406 0.644531 L 358.191406 250.394531 L 6.613281 250.394531 Z M 6.613281 0.644531 "/>
</clipPath>
<clipPath id="clip1">
  <rect x="0" y="0" width="359" height="256"/>
</clipPath>
<g id="surface5" clip-path="url(#clip1)">
<g clip-path="url(#clip2)" clip-rule="nonzero">
<path style=" stroke:none;fill-rule:nonzero;fill:rgb(63.919067%,96.859741%,70.979309%);fill-opacity:1;" d="M 219.4375 241.003906 C 206.066406 236.636719 191.695312 236.113281 178.0625 239.53125 C 167.15625 242.285156 157.222656 244.964844 149.824219 247.007812 C 140.554688 249.570312 130.925781 250.78125 121.324219 250.378906 C -118.269531 239.933594 72.929688 -17.660156 194.542969 1.710938 C 241.9375 9.28125 294.90625 56.066406 335.691406 98.746094 C 369.691406 134.375 364.472656 191.796875 324.5 220.589844 C 319.519531 224.171875 314.777344 227.355469 310.296875 230.179688 C 283.195312 247.175781 249.859375 250.972656 219.4375 241.003906 "/>
</g>
</g>
<clipPath id="clip3">
  <path d="M 127 40 L 339 40 L 339 244 L 127 244 Z M 127 40 "/>
</clipPath>
<clipPath id="clip4">
  <path d="M 209.882812 0 L 355.667969 86.433594 L 225.761719 305.53125 L 79.980469 219.097656 Z M 209.882812 0 "/>
</clipPath>
<clipPath id="clip5">
  <path d="M 209.882812 0 L 355.667969 86.433594 L 225.761719 305.53125 L 79.980469 219.097656 Z M 209.882812 0 "/>
</clipPath>
<clipPath id="clip6">
  <path d="M 209.820312 0.101562 L 356.96875 87.347656 L 249.796875 268.109375 L 102.648438 180.863281 Z M 209.820312 0.101562 "/>
</clipPath>
<clipPath id="clip7">
  <path d="M 209.820312 0.101562 L 355.542969 86.5 L 248.367188 267.261719 L 102.648438 180.863281 Z M 209.820312 0.101562 "/>
</clipPath>
<clipPath id="clip8">
  <path d="M 112 194 L 165 194 L 165 242 L 112 242 Z M 112 194 "/>
</clipPath>
<clipPath id="clip9">
  <path d="M 209.882812 0 L 355.667969 86.433594 L 225.761719 305.53125 L 79.980469 219.097656 Z M 209.882812 0 "/>
</clipPath>
<clipPath id="clip10">
  <path d="M 209.882812 0 L 355.667969 86.433594 L 225.761719 305.53125 L 79.980469 219.097656 Z M 209.882812 0 "/>
</clipPath>
<clipPath id="clip11">
  <path d="M 139.574219 184.28125 L 168.398438 201.371094 L 136.878906 254.539062 L 108.054688 237.449219 Z M 139.574219 184.28125 "/>
</clipPath>
<clipPath id="clip12">
  <path d="M 139.574219 184.28125 L 168.398438 201.371094 L 137.667969 253.203125 L 108.847656 236.113281 Z M 139.574219 184.28125 "/>
</clipPath>
<clipPath id="clip13">
  <path d="M 261 87 L 300 87 L 300 126 L 261 126 Z M 261 87 "/>
</clipPath>
<clipPath id="clip14">
  <path d="M 283.066406 73.394531 L 313.234375 109.464844 L 277.167969 139.632812 L 246.996094 103.566406 Z M 283.066406 73.394531 "/>
</clipPath>
<clipPath id="clip15">
  <path d="M 283.066406 73.394531 L 313.234375 109.464844 L 277.167969 139.632812 L 246.996094 103.566406 Z M 283.066406 73.394531 "/>
</clipPath>
</defs>
<g id="surface1">
<use xlink:href="#surface5" transform="matrix(1,0,0,1,5,62)" mask="url(#mask0)"/>
<g clip-path="url(#clip3)" clip-rule="nonzero">
<g clip-path="url(#clip4)" clip-rule="nonzero">
<g clip-path="url(#clip5)" clip-rule="nonzero">
<g clip-path="url(#clip6)" clip-rule="nonzero">
<g clip-path="url(#clip7)" clip-rule="nonzero">
<path style=" stroke:none;fill-rule:nonzero;fill:rgb(26.269531%,38.038635%,93.328857%);fill-opacity:1;" d="M 337.519531 116.546875 L 322.78125 128.773438 C 321.476562 129.867188 319.527344 129.695312 318.453125 128.378906 L 312.710938 121.460938 L 230.027344 190.117188 C 230.234375 191.023438 230.230469 191.96875 230.015625 192.882812 L 218.949219 238.898438 C 217.742188 243.90625 211.34375 245.390625 208.070312 241.445312 L 128.472656 145.429688 C 125.195312 141.472656 127.835938 135.460938 132.960938 135.195312 L 180.1875 132.792969 C 181.140625 132.742188 182.070312 132.898438 182.929688 133.289062 L 265.585938 64.617188 L 259.863281 57.710938 C 258.765625 56.386719 258.949219 54.445312 260.273438 53.359375 L 274.992188 41.125 C 276.308594 40.035156 278.257812 40.207031 279.339844 41.53125 L 337.929688 112.195312 C 339.007812 113.507812 338.835938 115.460938 337.519531 116.546875 "/>
</g>
</g>
</g>
</g>
</g>
<g clip-path="url(#clip8)" clip-rule="nonzero">
<g clip-path="url(#clip9)" clip-rule="nonzero">
<g clip-path="url(#clip10)" clip-rule="nonzero">
<g clip-path="url(#clip11)" clip-rule="nonzero">
<g clip-path="url(#clip12)" clip-rule="nonzero">
<path style=" stroke:none;fill-rule:nonzero;fill:rgb(26.269531%,38.038635%,93.328857%);fill-opacity:1;" d="M 164.730469 206.496094 L 124.871094 239.601562 C 121.5625 242.34375 116.648438 241.894531 113.902344 238.582031 C 111.160156 235.273438 111.617188 230.355469 114.929688 227.609375 L 154.792969 194.507812 L 164.730469 206.496094 "/>
</g>
</g>
</g>
</g>
</g>
<g clip-path="url(#clip13)" clip-rule="nonzero">
<g clip-path="url(#clip14)" clip-rule="nonzero">
<g clip-path="url(#clip15)" clip-rule="nonzero">
<path style=" stroke:none;fill-rule:nonzero;fill:rgb(100%,100%,100%);fill-opacity:1;" d="M 298.140625 91.417969 C 298.148438 91.425781 298.15625 91.4375 298.164062 91.445312 C 298.910156 92.34375 299.222656 93.464844 299.125 94.550781 C 299.027344 95.640625 298.515625 96.691406 297.613281 97.449219 L 297.613281 97.453125 L 286.140625 107.050781 L 295.738281 118.527344 C 296.492188 119.429688 296.808594 120.558594 296.714844 121.648438 C 296.617188 122.734375 296.109375 123.785156 295.214844 124.539062 C 295.207031 124.546875 295.195312 124.554688 295.1875 124.5625 C 294.285156 125.308594 293.164062 125.621094 292.082031 125.523438 C 290.992188 125.425781 289.9375 124.914062 289.183594 124.011719 L 289.179688 124.011719 L 279.582031 112.535156 L 268.105469 122.136719 C 267.203125 122.890625 266.074219 123.207031 264.984375 123.113281 C 263.898438 123.015625 262.847656 122.507812 262.09375 121.613281 C 262.085938 121.601562 262.078125 121.59375 262.070312 121.585938 C 261.324219 120.683594 261.011719 119.5625 261.109375 118.480469 C 261.203125 117.390625 261.71875 116.335938 262.621094 115.582031 L 262.617188 115.578125 L 274.09375 105.980469 L 264.496094 94.503906 C 263.738281 93.601562 263.421875 92.472656 263.519531 91.382812 C 263.617188 90.296875 264.125 89.246094 265.019531 88.492188 C 265.027344 88.484375 265.039062 88.476562 265.046875 88.46875 C 265.945312 87.722656 267.066406 87.410156 268.152344 87.503906 C 269.242188 87.601562 270.292969 88.117188 271.050781 89.019531 L 271.054688 89.015625 L 280.652344 100.492188 L 292.128906 90.894531 C 293.03125 90.136719 294.160156 89.820312 295.25 89.917969 C 296.335938 90.015625 297.386719 90.523438 298.140625 91.417969 "/>
</g>
</g>
</g>
</g>
</svg>
